<svg xmlns="http://www.w3.org/2000/svg" xmlns:xlink="http://www.w3.org/1999/xlink" width="250" zoomAndPan="magnify" viewBox="0 0 187.5 74.999997" height="100" preserveAspectRatio="xMidYMid meet" version="1.0"><defs><clipPath id="id1"><path d="M 171 20 L 181.121094 20 L 181.121094 61 L 171 61 Z M 171 20 " clip-rule="nonzero"/></clipPath><clipPath id="id2"><path d="M 134 71 L 139 71 L 139 74.898438 L 134 74.898438 Z M 134 71 " clip-rule="nonzero"/></clipPath><clipPath id="id3"><path d="M 176 0.101562 L 179 0.101562 L 179 3 L 176 3 Z M 176 0.101562 " clip-rule="nonzero"/></clipPath><clipPath id="id4"><path d="M 6.371094 21 L 34 21 L 34 62 L 6.371094 62 Z M 6.371094 21 " clip-rule="nonzero"/></clipPath></defs><path fill="#000000" d="M 57.183594 57.605469 C 55.707031 60.050781 52.464844 61.074219 49.621094 61.074219 C 42.742188 61.074219 38.875 56.070312 38.875 50.042969 L 38.875 32.1875 L 47.515625 32.1875 L 47.515625 48.226562 C 47.515625 50.953125 48.992188 53.117188 52.066406 53.117188 C 54.964844 53.117188 56.785156 51.125 56.785156 48.28125 L 56.785156 32.191406 L 65.429688 32.191406 L 65.429688 55.390625 C 65.429688 57.949219 65.65625 59.996094 65.710938 60.453125 L 57.410156 60.453125 C 57.296875 59.941406 57.183594 58.347656 57.183594 57.609375 Z M 57.183594 57.605469 " fill-opacity="1" fill-rule="nonzero"/><path fill="#000000" d="M 76.347656 51.121094 C 76.460938 53.054688 77.828125 54.933594 80.785156 54.933594 C 83 54.933594 84.082031 53.742188 84.082031 52.488281 C 84.082031 51.464844 83.398438 50.613281 81.296875 50.15625 L 78.054688 49.417969 C 72.027344 48.109375 69.636719 44.699219 69.636719 40.71875 C 69.636719 35.542969 74.1875 31.335938 80.5 31.335938 C 88.6875 31.335938 91.53125 36.453125 91.816406 39.753906 L 84.652344 41.0625 C 84.421875 39.183594 83.230469 37.589844 80.613281 37.589844 C 78.964844 37.589844 77.542969 38.558594 77.542969 40.035156 C 77.542969 41.230469 78.507812 41.914062 79.757812 42.140625 L 83.511719 42.878906 C 89.371094 44.070312 92.214844 47.597656 92.214844 51.75 C 92.214844 56.582031 88.515625 61.300781 80.953125 61.300781 C 72.082031 61.300781 69.238281 55.558594 69.011719 52.433594 L 76.347656 51.125 Z M 76.347656 51.121094 " fill-opacity="1" fill-rule="nonzero"/><path fill="#000000" d="M 106.488281 32.1875 L 112 32.1875 L 112 39.75 L 106.488281 39.75 L 106.488281 50.324219 C 106.488281 52.65625 107.738281 53.28125 109.613281 53.28125 C 110.523438 53.28125 111.375 53.113281 111.886719 52.996094 L 111.886719 60.164062 C 111.546875 60.332031 110.125 60.957031 107.394531 60.957031 C 101.539062 60.957031 97.957031 57.488281 97.957031 51.859375 L 97.957031 39.746094 L 92.953125 39.746094 L 92.953125 32.183594 L 94.375 32.183594 C 97.332031 32.183594 98.753906 30.195312 98.753906 27.578125 L 98.753906 23.9375 L 106.484375 23.9375 L 106.484375 32.183594 Z M 106.488281 32.1875 " fill-opacity="1" fill-rule="nonzero"/><path fill="#000000" d="M 120.703125 16.835938 C 123.542969 16.835938 125.820312 19.109375 125.820312 21.894531 C 125.820312 24.679688 123.546875 26.957031 120.703125 26.957031 C 117.859375 26.957031 115.699219 24.679688 115.699219 21.894531 C 115.699219 19.109375 117.972656 16.835938 120.703125 16.835938 Z M 116.4375 60.449219 L 116.4375 32.1875 L 125.082031 32.1875 L 125.082031 60.449219 Z M 116.4375 60.449219 " fill-opacity="1" fill-rule="nonzero"/><g clip-path="url(#id1)"><path fill="#000000" d="M 176.003906 20.128906 C 178.847656 20.128906 181.121094 22.40625 181.121094 25.191406 C 181.121094 27.976562 178.847656 30.25 176.003906 30.25 C 173.160156 30.25 171 27.976562 171 25.191406 C 171 22.40625 173.273438 20.128906 176.003906 20.128906 Z M 171.738281 60.449219 L 171.738281 32.1875 L 180.382812 32.1875 L 180.382812 60.449219 Z M 171.738281 60.449219 " fill-opacity="1" fill-rule="nonzero"/></g><path fill="#665e57" d="M 167.550781 22.261719 C 167.113281 22.007812 166.851562 21.535156 166.828125 21.027344 L 166.503906 14.296875 L 165.925781 14.324219 L 165.957031 13.75 L 140.9375 12.394531 L 140.421875 12.214844 L 140.371094 12.363281 L 140.355469 12.363281 L 140.355469 12.410156 L 140.183594 12.894531 L 139.601562 13.132812 L 139.617188 13.175781 L 139.488281 13.1875 L 140.558594 23.515625 C 140.597656 23.875 140.246094 24.160156 139.898438 24.042969 L 132.917969 21.699219 L 132.722656 22.28125 L 132.128906 22.242188 L 131.132812 37.164062 C 131.089844 37.859375 130.742188 38.53125 130.136719 38.882812 C 129.308594 39.367188 128.753906 40.261719 128.753906 41.289062 C 128.753906 42.421875 129.433594 43.394531 130.402344 43.828125 C 131.0625 44.125 131.578125 44.664062 131.722656 45.371094 L 134.425781 55.671875 L 135.71875 55.410156 L 133.027344 44.882812 C 132.820312 43.753906 133.394531 44.101562 133.824219 44.488281 L 141.9375 52.707031 C 142.300781 53.074219 142.429688 53.59375 142.355469 54.101562 C 142.339844 54.203125 142.332031 54.300781 142.332031 54.402344 C 142.332031 54.515625 142.34375 54.625 142.359375 54.726562 C 142.429688 55.1875 142.226562 55.644531 141.894531 55.96875 L 133.355469 62.75 L 134.28125 63.6875 L 142.738281 56.988281 C 143.113281 56.625 143.640625 56.484375 144.15625 56.582031 C 144.234375 56.597656 144.320312 56.601562 144.40625 56.605469 C 145.015625 56.597656 145.390625 57.074219 145.550781 57.335938 L 145.574219 57.378906 C 145.617188 57.449219 145.640625 57.496094 145.640625 57.496094 L 145.632812 57.476562 L 149.070312 63.125 L 150.195312 62.4375 L 147.011719 57.199219 C 146.621094 56.558594 146.441406 55.769531 146.664062 55.050781 C 146.730469 54.847656 146.765625 54.632812 146.765625 54.40625 C 146.765625 54.125 146.710938 53.855469 146.613281 53.605469 C 146.347656 52.9375 146.421875 52.179688 146.773438 51.546875 L 151.886719 42.296875 L 160.96875 42.339844 C 161.300781 42.339844 161.589844 42.523438 161.789062 42.785156 C 162.09375 43.1875 162.574219 43.449219 163.117188 43.449219 C 164.042969 43.449219 164.792969 42.695312 164.792969 41.769531 C 164.792969 40.84375 164.042969 40.09375 163.117188 40.09375 C 163.113281 40.09375 163.109375 40.09375 163.109375 40.09375 L 163.113281 40.085938 C 163.113281 40.085938 162.421875 40.261719 161.363281 39.40625 L 148.488281 28.085938 C 147.972656 27.460938 148.617188 27.175781 149.046875 27.058594 L 156.324219 25.933594 L 156.324219 25.949219 L 162.027344 25.480469 C 162.890625 25.40625 163.703125 25.78125 164.300781 26.40625 C 164.886719 27.019531 165.761719 27.351562 166.714844 27.175781 C 167.777344 26.976562 168.644531 26.101562 168.828125 25.039062 C 169.039062 23.859375 168.46875 22.796875 167.550781 22.265625 Z M 146.375 14.007812 L 160.519531 14.773438 C 160.890625 14.792969 160.957031 15.3125 160.605469 15.429688 L 156.589844 16.734375 C 156.269531 16.835938 155.9375 16.761719 155.644531 16.597656 C 155.425781 16.472656 155.171875 16.402344 154.898438 16.402344 C 154.628906 16.402344 154.371094 16.472656 154.152344 16.601562 C 153.8125 16.796875 153.386719 16.789062 153.015625 16.65625 L 146.320312 14.292969 C 146.160156 14.234375 146.207031 14 146.375 14.007812 Z M 152.578125 17.902344 C 152.578125 17.902344 153.601562 18.269531 152.847656 19.066406 L 147.832031 23.984375 L 147.839844 23.972656 C 146.492188 25.335938 145.75 24.40625 145.472656 23.886719 L 141.363281 13.945312 Z M 143.117188 26.515625 C 143.289062 26.589844 143.824219 26.863281 143.917969 27.335938 C 143.917969 27.339844 143.917969 27.34375 143.921875 27.347656 C 143.96875 27.613281 143.875 27.941406 143.5 28.335938 L 143.53125 28.324219 L 143.085938 28.773438 C 142.847656 29.011719 142.4375 28.867188 142.402344 28.53125 L 142.242188 26.96875 C 142.203125 26.609375 142.554688 26.324219 142.902344 26.441406 L 143.113281 26.515625 Z M 141.597656 17.957031 L 144.242188 24.355469 C 144.621094 25.332031 144.152344 25.417969 143.71875 25.324219 L 143.207031 25.152344 C 143.183594 25.144531 143.164062 25.132812 143.164062 25.132812 L 143.171875 25.140625 L 143.070312 25.105469 C 142.425781 24.890625 141.96875 24.320312 141.898438 23.640625 L 141.3125 18.027344 C 141.296875 17.859375 141.53125 17.800781 141.59375 17.957031 Z M 135.910156 40.691406 L 135.917969 40.691406 C 133.503906 40.738281 134.671875 39.15625 135.050781 38.703125 L 140.453125 33.28125 C 140.859375 32.875 141.554688 33.125 141.613281 33.691406 L 142.160156 38.960938 C 142.261719 39.953125 141.472656 40.8125 140.476562 40.789062 Z M 133.382812 23.246094 L 139.730469 25.378906 C 140.375 25.59375 140.832031 26.164062 140.90625 26.84375 L 141.199219 29.671875 C 141.257812 30.242188 141.058594 30.808594 140.652344 31.21875 L 134.203125 37.6875 L 134.238281 37.628906 C 132.648438 39.289062 132.441406 38.078125 132.445312 37.332031 Z M 142.871094 51.746094 C 141.15625 50.023438 136.722656 45.542969 134.824219 43.621094 C 133.785156 42.277344 135.0625 42.046875 135.671875 42.007812 L 141.03125 42.121094 C 141.867188 42.140625 142.554688 42.777344 142.644531 43.609375 L 143.457031 51.46875 C 143.492188 51.792969 143.101562 51.980469 142.871094 51.746094 Z M 145.394531 51.273438 C 145.230469 51.570312 144.785156 51.476562 144.75 51.140625 L 144.011719 44.046875 C 143.910156 43.058594 144.699219 42.199219 145.695312 42.222656 L 150.367188 42.320312 C 150.367188 42.320312 146.777344 48.796875 145.394531 51.273438 Z M 145.144531 40.890625 C 144.308594 40.871094 143.617188 40.234375 143.53125 39.402344 L 142.761719 31.964844 C 142.703125 31.394531 142.902344 30.828125 143.304688 30.417969 L 144.226562 29.496094 L 144.21875 29.507812 C 144.21875 29.507812 144.230469 29.496094 144.246094 29.480469 L 144.359375 29.367188 C 144.566406 29.171875 145.007812 28.871094 145.589844 29.066406 C 146 29.203125 146.242188 29.523438 146.386719 29.8125 L 146.550781 30.257812 C 146.570312 30.320312 146.574219 30.367188 146.574219 30.367188 L 146.570312 30.3125 L 150.527344 41.003906 Z M 158.589844 41.007812 L 151.917969 40.976562 L 147.738281 29.675781 C 147.695312 29.429688 147.730469 29.222656 148.074219 29.472656 L 159.242188 39.289062 C 159.921875 39.886719 159.496094 41.007812 158.589844 41.007812 Z M 161.433594 24.203125 L 156.261719 24.628906 L 156.257812 24.609375 L 149.105469 25.714844 L 149.140625 25.703125 C 149.085938 25.714844 149.042969 25.71875 148.992188 25.730469 L 148.757812 25.769531 C 148.042969 25.839844 148.296875 25.417969 148.554688 25.125 L 154 19.789062 L 154 19.792969 L 154.007812 19.78125 L 154.050781 19.742188 C 154.164062 19.632812 154.46875 19.394531 154.867188 19.460938 L 154.863281 19.460938 C 154.875 19.460938 154.886719 19.460938 154.902344 19.460938 C 155 19.460938 155.097656 19.449219 155.191406 19.433594 C 155.492188 19.371094 155.804688 19.398438 156.066406 19.566406 L 161.699219 23.144531 C 162.164062 23.441406 161.988281 24.164062 161.4375 24.207031 Z M 164.761719 22.324219 C 164.734375 22.34375 164.707031 22.363281 164.679688 22.382812 C 164.164062 22.742188 163.464844 22.703125 162.933594 22.363281 L 157.011719 18.605469 C 156.765625 18.449219 156.808594 18.074219 157.085938 17.984375 C 159.160156 17.296875 165.230469 15.3125 165.230469 15.3125 L 165.503906 20.933594 C 165.53125 21.5 165.238281 22.019531 164.761719 22.324219 Z M 164.761719 22.324219 " fill-opacity="1" fill-rule="nonzero"/><path fill="#665e57" d="M 155.007812 53.261719 C 154.398438 53.261719 153.90625 53.753906 153.90625 54.359375 C 153.90625 54.964844 154.398438 55.460938 155.007812 55.460938 C 155.613281 55.460938 156.105469 54.964844 156.105469 54.359375 C 156.105469 53.753906 155.613281 53.261719 155.007812 53.261719 Z M 155.007812 53.261719 " fill-opacity="1" fill-rule="nonzero"/><path fill="#665e57" d="M 129.398438 30.015625 C 129.398438 29.410156 128.90625 28.917969 128.300781 28.917969 C 127.691406 28.917969 127.199219 29.410156 127.199219 30.015625 C 127.199219 30.625 127.691406 31.117188 128.300781 31.117188 C 128.90625 31.117188 129.398438 30.625 129.398438 30.015625 Z M 129.398438 30.015625 " fill-opacity="1" fill-rule="nonzero"/><path fill="#665e57" d="M 152.09375 10.679688 C 152.492188 10.679688 152.816406 10.355469 152.816406 9.957031 C 152.816406 9.558594 152.492188 9.234375 152.09375 9.234375 C 151.695312 9.234375 151.371094 9.558594 151.371094 9.957031 C 151.371094 10.355469 151.695312 10.679688 152.09375 10.679688 Z M 152.09375 10.679688 " fill-opacity="1" fill-rule="nonzero"/><g clip-path="url(#id2)"><path fill="#665e57" d="M 136.703125 71.28125 C 135.652344 71.28125 134.800781 72.132812 134.800781 73.183594 C 134.800781 74.234375 135.652344 75.085938 136.703125 75.085938 C 137.753906 75.085938 138.605469 74.234375 138.605469 73.183594 C 138.605469 72.132812 137.753906 71.28125 136.703125 71.28125 Z M 136.703125 71.28125 " fill-opacity="1" fill-rule="nonzero"/></g><path fill="#665e57" d="M 131.941406 10.3125 C 133.34375 10.3125 134.480469 9.175781 134.480469 7.773438 C 134.480469 6.371094 133.34375 5.230469 131.941406 5.230469 C 130.539062 5.230469 129.402344 6.371094 129.402344 7.773438 C 129.402344 9.175781 130.539062 10.3125 131.941406 10.3125 Z M 131.941406 10.3125 " fill-opacity="1" fill-rule="nonzero"/><g clip-path="url(#id3)"><path fill="#665e57" d="M 177.257812 0.113281 C 176.648438 0.113281 176.15625 0.609375 176.15625 1.214844 C 176.15625 1.820312 176.648438 2.3125 177.257812 2.3125 C 177.863281 2.3125 178.355469 1.820312 178.355469 1.214844 C 178.355469 0.609375 177.863281 0.113281 177.257812 0.113281 Z M 177.257812 0.113281 " fill-opacity="1" fill-rule="nonzero"/></g><path fill="#000000" d="M 165.34375 10.085938 C 163.382812 10.332031 161.796875 11.941406 161.554688 13.90625 C 161.496094 14.382812 161.519531 14.839844 161.605469 15.277344 C 161.890625 16.707031 161.417969 18.1875 160.457031 19.285156 L 158.632812 21.371094 L 158.648438 21.339844 C 158.648438 21.339844 158.597656 21.402344 158.53125 21.488281 L 158.15625 21.914062 C 157.667969 22.429688 156.882812 23.101562 156.136719 23.070312 C 155.402344 23.007812 154.453125 22.664062 153.917969 22.25 L 145.46875 15.757812 C 144.625 15.113281 144.125 14.117188 144.101562 13.058594 L 144.101562 13.011719 C 144.054688 11.03125 142.585938 9.289062 140.613281 9.117188 C 138.34375 8.914062 136.4375 10.699219 136.4375 12.929688 C 136.4375 13.253906 136.480469 13.570312 136.558594 13.867188 C 136.828125 14.898438 136.648438 15.988281 135.992188 16.824219 L 133.808594 19.609375 C 133.445312 20.078125 132.910156 20.371094 132.328125 20.484375 C 131.859375 20.578125 131.445312 20.769531 131.007812 21.460938 C 130.847656 21.710938 130.789062 22.148438 130.796875 22.441406 C 130.824219 23.363281 131.457031 24.121094 132.3125 24.359375 L 132.300781 24.363281 C 133.507812 24.605469 134.21875 25.152344 134.535156 25.457031 L 134.730469 25.65625 C 134.730469 25.65625 134.742188 25.675781 134.742188 25.675781 L 134.742188 25.667969 L 142.734375 33.972656 C 144.558594 35.867188 145.371094 38.480469 145.070312 41.089844 C 145.042969 41.328125 145.027344 41.570312 145.027344 41.816406 C 145.027344 42.167969 145.058594 42.519531 145.113281 42.855469 C 145.40625 44.585938 144.65625 46.328125 143.316406 47.460938 L 137.007812 52.789062 L 137.019531 52.769531 C 137.019531 52.769531 136.976562 52.8125 136.914062 52.867188 L 136.574219 53.15625 C 136.160156 53.472656 135.511719 53.878906 134.820312 53.914062 L 134.839844 53.921875 C 134.042969 54.070312 133.433594 54.769531 133.433594 55.613281 C 133.433594 55.675781 133.445312 55.734375 133.453125 55.792969 L 133.40625 55.832031 L 133.457031 55.855469 C 133.578125 56.691406 134.285156 57.335938 135.15625 57.335938 C 135.246094 57.335938 135.332031 57.328125 135.417969 57.316406 C 135.984375 57.230469 136.566406 57.246094 137.089844 57.480469 L 143.683594 61.117188 C 144.195312 61.347656 144.042969 62.113281 143.480469 62.128906 L 137.523438 62.25 C 136.695312 62.277344 135.851562 62.085938 135.203125 61.574219 C 134.671875 61.152344 133.945312 60.972656 133.175781 61.203125 C 132.480469 61.410156 131.921875 61.988281 131.730469 62.6875 C 131.328125 64.167969 132.433594 65.507812 133.851562 65.507812 C 134.375 65.507812 134.855469 65.324219 135.234375 65.015625 C 135.914062 64.460938 136.71875 64.085938 137.59375 64.0625 L 144.886719 63.902344 C 145.898438 63.871094 146.863281 64.285156 147.554688 65.019531 C 148.125 65.621094 148.933594 66 149.828125 66 C 151.28125 66 152.496094 65.011719 152.863281 63.675781 L 152.921875 63.464844 L 152.945312 63.269531 C 152.964844 63.128906 152.988281 62.992188 152.988281 62.84375 C 152.988281 61.097656 151.570312 59.683594 149.828125 59.683594 C 149.382812 59.683594 148.960938 59.78125 148.578125 59.949219 C 147.628906 60.367188 146.558594 60.417969 145.613281 59.992188 L 138 55.988281 L 138.160156 55.988281 C 137.011719 55.472656 137.796875 54.542969 138.070312 54.261719 L 144.5625 48.78125 C 145.9375 47.617188 147.796875 47.347656 149.519531 47.871094 C 150.355469 48.125 151.265625 48.210938 152.210938 48.085938 C 155.042969 47.710938 157.324219 45.378906 157.640625 42.539062 C 158.0625 38.71875 155.085938 35.488281 151.355469 35.488281 C 151.164062 35.488281 150.976562 35.496094 150.792969 35.511719 C 148.324219 35.730469 145.914062 34.660156 144.195312 32.875 L 135.722656 24.078125 C 135.414062 23.710938 134.992188 23.097656 134.929688 22.460938 C 134.929688 22.429688 134.9375 22.402344 134.9375 22.371094 C 134.9375 22.304688 134.933594 22.238281 134.929688 22.175781 C 134.863281 21.550781 135.074219 20.929688 135.460938 20.433594 L 137.367188 18.003906 C 138.035156 17.152344 139.074219 16.71875 140.15625 16.753906 C 140.195312 16.753906 140.230469 16.753906 140.265625 16.753906 C 140.589844 16.753906 140.90625 16.710938 141.203125 16.632812 C 142.308594 16.34375 143.476562 16.507812 144.382812 17.203125 L 152.914062 23.757812 C 153.542969 24.242188 154.058594 24.898438 154.226562 25.671875 C 154.296875 25.984375 154.460938 26.316406 154.777344 26.6875 C 155.195312 27.171875 155.792969 27.515625 156.429688 27.507812 C 157.636719 27.496094 158.613281 26.507812 158.613281 25.296875 L 158.613281 25.28125 C 158.613281 24.65625 158.945312 23.757812 159.359375 23.289062 L 161.808594 20.484375 C 162.820312 19.332031 164.308594 18.796875 165.847656 18.820312 C 166.277344 18.828125 166.730469 18.765625 167.195312 18.625 C 168.726562 18.152344 169.925781 16.851562 170.222656 15.273438 C 170.773438 12.289062 168.304688 9.710938 165.34375 10.082031 Z M 165.34375 10.085938 " fill-opacity="1" fill-rule="nonzero"/><g clip-path="url(#id4)"><path fill="#000000" d="M 6.371094 45.050781 L 14.898438 43.574219 L 14.898438 47.269531 C 14.898438 50.851562 17.171875 52.496094 19.785156 52.496094 C 22.742188 52.496094 24.503906 50.339844 24.503906 47.324219 L 24.503906 21.519531 L 33.484375 21.519531 L 33.484375 47.554688 C 33.484375 54.886719 27.859375 61.023438 19.84375 61.023438 C 11.828125 61.023438 6.371094 55.734375 6.371094 47.722656 Z M 6.371094 45.050781 " fill-opacity="1" fill-rule="nonzero"/></g></svg>